<svg id="Layer_1" data-name="Layer 1" xmlns="http://www.w3.org/2000/svg" viewBox="0 0 174.18 259.4"><defs><style>.cls-1{fill:#6b6b6b;}</style></defs><title>location-512</title><path class="cls-1" d="M151.06,14.3c4.32,0.68,8.67,1.17,12.95,2.06,35.65,7.41,62.95,36.76,68.24,72.82,1.93,13.15-.07,25.68-4.11,38.1-7.1,21.81-16.84,42.5-27.89,62.5-13.75,24.87-28.22,49.34-42.38,74-0.92,1.61-1.81,3.24-2.81,4.81a10.58,10.58,0,0,1-18.15,0C115.54,232.68,93.78,197,76.38,159c-6-13-11.34-26.3-15-40.22C56.28,99.47,59,80.94,67.74,63.46c13.34-26.66,35.08-42.58,64.45-48,2.89-.53,5.82-0.81,8.74-1.2h10.14Zm-5.15,225.49c0.52-.79.77-1.11,1-1.47,13-23.55,26.13-47,39-70.67,8.2-15,15.94-30.29,21.71-46.48,3.55-10,5.28-20.1,3.18-30.57-5.22-26-20.24-44-45.54-51.72C139.53,31,116.41,37.28,98,57c-15,16-21.12,35.16-15.76,57C85.44,127,91.15,139.23,97.48,151c13.35,24.9,27.1,49.59,40.67,74.37C140.7,230.05,143.18,234.73,145.91,239.79Z" transform="translate(-58.81 -14.3)"/><path class="cls-1" d="M178,100.8a32.2,32.2,0,1,1-32.12-32.23A32,32,0,0,1,178,100.8Z" transform="translate(-58.81 -14.3)"/></svg>