<?xml version="1.0" encoding="utf-8"?>
<!-- Generator: Adobe Illustrator 19.2.1, SVG Export Plug-In . SVG Version: 6.00 Build 0)  -->
<svg version="1.1" id="Layer_1" xmlns="http://www.w3.org/2000/svg" xmlns:xlink="http://www.w3.org/1999/xlink" x="0px" y="0px"
	 viewBox="0 0 174.2 259.4" style="enable-background:new 0 0 174.2 259.4;" xml:space="preserve">
<style type="text/css">
	.st0{fill:#FFFFFF;}
</style>
<title>location-512</title>
<path class="st0" d="M92.2,0c4.3,0.7,8.7,1.2,12.9,2.1c35.7,7.4,62.9,36.8,68.2,72.8c1.9,13.2-0.1,25.7-4.1,38.1
	c-7.1,21.8-16.8,42.5-27.9,62.5c-13.8,24.9-28.2,49.3-42.4,74c-0.9,1.6-1.8,3.2-2.8,4.8c-3,5-9.5,6.6-14.5,3.6
	c-1.5-0.9-2.7-2.1-3.6-3.6C56.7,218.4,35,182.7,17.6,144.7c-6-13-11.3-26.3-15-40.2c-5.1-19.3-2.4-37.8,6.4-55.3
	C22.3,22.5,44,6.6,73.4,1.2c2.9-0.5,5.8-0.8,8.7-1.2L92.2,0L92.2,0z M87.1,225.5c0.5-0.8,0.8-1.1,1-1.5c13-23.6,26.1-47,39-70.7
	c8.2-15,15.9-30.3,21.7-46.5c3.6-10,5.3-20.1,3.2-30.6c-5.2-26-20.2-44-45.5-51.7C80.7,16.7,57.6,23,39.2,42.7
	c-15,16-21.1,35.2-15.8,57c3.2,13,8.9,25.2,15.2,37c13.3,24.9,27.1,49.6,40.7,74.4C81.9,215.8,84.4,220.4,87.1,225.5L87.1,225.5z"/>
<path class="st0" d="M119.2,86.5c0,17.8-14.4,32.2-32.2,32.2s-32.2-14.4-32.2-32.2c0-17.8,14.4-32.2,32.2-32.2c0,0,0,0,0,0
	c17.7-0.1,32.1,14.2,32.1,31.9C119.2,86.3,119.2,86.4,119.2,86.5z"/>
</svg>
